<?xml version="1.0" encoding="UTF-8"?>
<svg xmlns="http://www.w3.org/2000/svg" width="64" height="64" viewBox="0 0 64 64" role="img" aria-label="Homework Reminder">
  <defs>
    <linearGradient id="g" x1="0" y1="0" x2="1" y2="1">
      <stop offset="0" stop-color="#667eea"/>
      <stop offset="1" stop-color="#764ba2"/>
    </linearGradient>
    <filter id="s" x="-20%" y="-20%" width="140%" height="140%">
      <feDropShadow dx="0" dy="2" stdDeviation="2" flood-color="#000" flood-opacity="0.25"/>
    </filter>
  </defs>

  <rect x="6" y="6" width="52" height="52" rx="14" fill="url(#g)"/>

  <!-- stylized book -->
  <g filter="url(#s)">
    <path d="M22 19c-3 0-6 2-6 5v22c0 3 3 5 6 5h18c2 0 4 1 6 3V24c-2-2-4-3-6-3H22z" fill="#fff" opacity="0.95"/>
    <path d="M22 23h16c2 0 4 1 6 3v20c-2-2-4-3-6-3H22c-1 0-2-1-2-2V25c0-1 1-2 2-2z" fill="#ffffff"/>
    <path d="M26 28h12" stroke="#667eea" stroke-width="2" stroke-linecap="round" opacity="0.9"/>
    <path d="M26 33h10" stroke="#667eea" stroke-width="2" stroke-linecap="round" opacity="0.9"/>
    <path d="M26 38h8" stroke="#667eea" stroke-width="2" stroke-linecap="round" opacity="0.9"/>
  </g>
</svg>

